<!-- icon666.com - MILLIONS OF FREE VECTOR ICONS --><svg version="1.1" id="Layer_1" xmlns="http://www.w3.org/2000/svg" xmlns:xlink="http://www.w3.org/1999/xlink" x="0px" y="0px" viewBox="0 0 511.999 511.999" style="enable-background:new 0 0 511.999 511.999;" xml:space="preserve"><g><path style="fill:#17171A;" d="M473.044,446.83h-55.572c-11.292,0-20.446-9.154-20.446-20.446V401.22h96.464v25.165 C493.491,437.676,484.336,446.83,473.044,446.83z"></path><path style="fill:#17171A;" d="M94.527,446.83H38.956c-11.292,0-20.446-9.154-20.446-20.446V401.22h96.464v25.165 C114.974,437.676,105.82,446.83,94.527,446.83z"></path></g><g><path style="fill:#E0E0E3;" d="M459.256,167.399h-37.694v-33.028h37.694c9.121,0,16.514,7.394,16.514,16.514l0,0 C475.77,160.005,468.377,167.399,459.256,167.399z"></path><path style="fill:#E0E0E3;" d="M52.744,134.371h37.694v33.028H52.744c-9.121,0-16.514-7.394-16.514-16.514l0,0 C36.23,141.764,43.623,134.371,52.744,134.371z"></path></g><polygon style="fill:#3C3A41;" points="427.608,163.03 256,163.03 84.392,163.03 18.509,227.34 256,227.34 493.491,227.34 "></polygon><path style="fill:#2A292C;" d="M490.129,403.841H21.871c-7.937,0-14.371-6.434-14.371-14.371V241.711 c0-7.937,6.434-14.371,14.371-14.371h468.258c7.937,0,14.371,6.434,14.371,14.371V389.47 C504.5,397.407,498.066,403.841,490.129,403.841z"></path><rect x="7.5" y="332.19" style="fill:#17171A;" width="495.95" height="27.611"></rect><polygon style="fill:#E0E0E3;" points="366.794,332.192 145.206,332.192 145.206,188.894 256,163.03 366.794,188.894 "></polygon><rect x="182.95" y="227.34" style="fill:#3C3A41;" width="146.09" height="104.85"></rect><path style="fill:#B9DEEF;" d="M426.91,135.422v27.61H85.09v-27.61c0-38.8,31.45-70.25,70.25-70.25h201.32 c5.08,0,10.03,0.54,14.81,1.57c5.29,1.13,10.36,2.86,15.14,5.12c6.47,3.05,12.41,7.06,17.61,11.84 C418.17,96.552,426.91,114.972,426.91,135.422z"></path><g><path style="fill:#DCEFF9;" d="M404.22,83.702l-79.33,79.33h-29.46l91.18-91.17C393.08,74.912,399.02,78.922,404.22,83.702z"></path><path style="fill:#DCEFF9;" d="M371.47,66.742l-96.3,96.29h-71.25l97.86-97.86h54.88C361.74,65.172,366.69,65.712,371.47,66.742z"></path></g><g><path style="fill:#FFE164;" d="M463.343,288.241h-51.897c-8.601,0-15.574-6.973-15.574-15.574v-5.726 c0-8.601,6.973-15.574,15.574-15.574h51.897c8.601,0,15.574,6.973,15.574,15.574v5.726 C478.917,281.269,471.944,288.241,463.343,288.241z"></path><circle style="fill:#FFE164;" cx="457.67" cy="311.66" r="20.271"></circle><path style="fill:#FFE164;" d="M48.657,288.503h51.897c8.601,0,15.574-6.973,15.574-15.574v-5.726 c0-8.601-6.973-15.574-15.574-15.574H48.657c-8.601,0-15.574,6.973-15.574,15.574v5.726 C33.083,281.531,40.056,288.503,48.657,288.503z"></path><circle style="fill:#FFE164;" cx="54.33" cy="311.92" r="20.271"></circle></g><rect x="101.08" y="356.83" style="fill:#E0E0E3;" width="309.84" height="24.64"></rect><g><circle style="fill:#B9DEEF;" cx="457.67" cy="366.27" r="14.355"></circle><circle style="fill:#B9DEEF;" cx="54.33" cy="366.27" r="14.355"></circle></g><path d="M498.087,221.345l-47.579-46.443h8.752c6.414,0,12.445-2.499,16.993-7.046c4.525-4.541,7.018-10.569,7.018-16.975 c0-13.239-10.771-24.01-24.01-24.01h-25.33c-4.271-38.864-37.288-69.204-77.271-69.204H186.333c-4.142,0-7.5,3.357-7.5,7.5 s3.358,7.5,7.5,7.5h170.326c34.601,0,62.751,28.15,62.751,62.751v20.111H92.591v-20.111c0-34.601,28.15-62.751,62.751-62.751 c4.142,0,7.5-3.357,7.5-7.5s-3.358-7.5-7.5-7.5c-39.983,0-73.001,30.34-77.271,69.204H52.74c-6.407,0-12.435,2.492-16.993,7.036 c-4.525,4.541-7.018,10.569-7.018,16.974c0,13.245,10.771,24.021,24.01,24.021h8.752l-47.579,46.443 C5.778,224.535,0,232.458,0,241.711V389.47c0,8.108,4.438,15.194,11.01,18.971v17.941c0,14.363,10.891,26.225,24.847,27.774 c0.522,0.112,1.052,0.174,1.584,0.174c0.167,0,0.334-0.013,0.5-0.024c0.339,0.012,0.677,0.026,1.018,0.026h55.57 c15.406,0,27.94-12.538,27.94-27.95v-15.041h19.863c4.142,0,7.5-3.357,7.5-7.5s-3.358-7.5-7.5-7.5H21.871 c-3.789,0-6.871-3.082-6.871-6.871v-49.777h130.206h37.747h146.094h37.747H497v49.777c0,3.789-3.083,6.871-6.871,6.871h-316.77 c-4.142,0-7.5,3.357-7.5,7.5s3.358,7.5,7.5,7.5h216.17v15.041c0,15.412,12.534,27.95,27.94,27.95h55.57 c15.412,0,27.95-12.538,27.95-27.95v-17.941c6.571-3.777,11.01-10.863,11.01-18.971V241.711 C512,232.458,506.222,224.535,498.087,221.345z M26.01,411.341h81.46v15.041c0,7.141-5.805,12.95-12.94,12.95h-1.819l4.091-4.091 c2.929-2.93,2.929-7.678,0-10.607c-2.928-2.928-7.677-2.928-10.606,0l-14.699,14.698h-15.95l4.091-4.091 c2.929-2.93,2.929-7.678,0-10.607c-2.929-2.928-7.678-2.928-10.606,0L34.97,438.696c-5.192-1.688-8.959-6.566-8.959-12.314v-15.041 H26.01z M485.99,426.382c0,6.977-5.551,12.668-12.466,12.926l4.066-4.066c2.929-2.93,2.929-7.678,0-10.607 c-2.929-2.928-7.678-2.928-10.606,0l-14.699,14.698h-15.95l4.091-4.091c2.929-2.93,2.929-7.678,0-10.607 c-2.929-2.928-7.678-2.928-10.606,0l-14.504,14.504c-6.111-1.032-10.786-6.351-10.786-12.756v-15.041h81.46V426.382z M374.294,212.082h92.829l7.948,7.758H374.294V212.082z M434.409,141.872h24.851c4.968,0,9.01,4.042,9.01,9.01 c0,2.408-0.938,4.677-2.633,6.377c-1.705,1.705-3.97,2.644-6.377,2.644h-24.119l-0.732-0.715L434.409,141.872L434.409,141.872z M424.555,170.53l27.201,26.552h-77.462v-8.188c0-3.485-2.401-6.512-5.795-7.304l-47.377-11.06H424.555z M52.74,159.902 c-4.968,0-9.01-4.047-9.01-9.021c0-2.408,0.938-4.676,2.625-6.368c1.709-1.703,3.977-2.642,6.385-2.642h24.851v17.316l-0.732,0.715 H52.74z M87.445,170.53h103.433l-47.377,11.06c-3.394,0.792-5.795,3.818-5.795,7.304v8.188H60.244L87.445,170.53z M54.334,324.692 c-7.042,0-12.771-5.729-12.771-12.771s5.729-12.771,12.771-12.771s12.771,5.729,12.771,12.771S61.376,324.692,54.334,324.692z M40.583,272.93v-5.726c0-4.452,3.622-8.074,8.074-8.074h51.897c4.452,0,8.074,3.622,8.074,8.074v5.726 c0,4.452-3.622,8.074-8.074,8.074H48.657C44.205,281.004,40.583,277.382,40.583,272.93z M137.706,324.692H78.982 c1.991-3.827,3.123-8.168,3.123-12.771c0-5.918-1.867-11.406-5.034-15.917h23.483c12.723,0,23.074-10.351,23.074-23.074v-5.726 c0-12.724-10.351-23.074-23.074-23.074H48.657c-12.723,0-23.074,10.351-23.074,23.074v5.726c0,7.748,3.842,14.61,9.716,18.797 c-5.373,5.067-8.737,12.243-8.737,20.194c0,4.604,1.133,8.945,3.123,12.771H15v-82.981c0-3.789,3.083-6.871,6.871-6.871h115.835 V324.692z M36.93,219.84l7.948-7.758h92.829v7.758H36.93z M175.453,324.692h-22.747V234.84h22.747V324.692z M199.918,324.692h-9.465 V234.84h9.465V324.692z M224.209,324.692h-9.291V234.84h9.291V324.692z M248.5,324.692h-9.291V234.84h9.291V324.692z M273.49,324.692h-9.99V234.84h9.99V324.692z M297.781,324.692h-9.291V234.84h9.291V324.692z M321.547,324.692h-8.766V234.84h8.766 V324.692z M359.294,324.692h-22.747V234.84h22.747V324.692z M359.294,219.84h-30.247H182.953h-30.247v-24.995L256,170.731 l103.294,24.113V219.84z M457.666,324.43c-7.042,0-12.771-5.729-12.771-12.771s5.729-12.771,12.771-12.771 s12.771,5.729,12.771,12.771S464.708,324.43,457.666,324.43z M471.417,272.668c0,4.451-3.622,8.073-8.074,8.073h-51.897 c-4.452,0-8.074-3.622-8.074-8.073v-5.726c0-4.452,3.622-8.074,8.074-8.074h51.897c4.452,0,8.074,3.622,8.074,8.074V272.668z M497,324.692h-14.82c2.076-3.889,3.258-8.326,3.258-13.034c0-7.951-3.364-15.127-8.737-20.194 c5.874-4.187,9.716-11.049,9.716-18.796v-5.726c0-12.724-10.351-23.074-23.074-23.074h-51.897 c-12.723,0-23.074,10.351-23.074,23.074v5.726c0,12.723,10.351,23.073,23.074,23.073h23.483c-3.167,4.511-5.034,9.999-5.034,15.917 c0,4.708,1.182,9.145,3.258,13.034h-58.859V234.84h115.835c3.789,0,6.871,3.082,6.871,6.871L497,324.692L497,324.692z"></path><path d="M329.047,364.332c4.142,0,7.5-3.357,7.5-7.5s-3.358-7.5-7.5-7.5H101.081c-4.142,0-7.5,3.357-7.5,7.5v24.641 c0,4.143,3.358,7.5,7.5,7.5H410.92c4.142,0,7.5-3.357,7.5-7.5v-24.641c0-4.143-3.358-7.5-7.5-7.5H357c-4.142,0-7.5,3.357-7.5,7.5 s3.358,7.5,7.5,7.5h46.419v9.641H108.581v-9.641H329.047z"></path><path d="M479.521,366.269c0-12.051-9.804-21.854-21.854-21.854s-21.854,9.804-21.854,21.854s9.804,21.855,21.854,21.855 S479.521,378.319,479.521,366.269z M450.812,366.269c0-3.779,3.075-6.854,6.854-6.854s6.854,3.075,6.854,6.854 c0,3.78-3.075,6.855-6.854,6.855S450.812,370.049,450.812,366.269z"></path><path d="M32.479,366.269c0,12.051,9.804,21.855,21.854,21.855s21.854-9.805,21.854-21.855s-9.804-21.854-21.854-21.854 S32.479,354.218,32.479,366.269z M61.188,366.269c0,3.78-3.075,6.855-6.854,6.855s-6.854-3.075-6.854-6.855 c0-3.779,3.075-6.854,6.854-6.854S61.188,362.489,61.188,366.269z"></path></svg>