<?xml version="1.0" standalone="no"?>
<!DOCTYPE svg PUBLIC "-//W3C//DTD SVG 20010904//EN"
 "http://www.w3.org/TR/2001/REC-SVG-20010904/DTD/svg10.dtd">
<svg version="1.0" xmlns="http://www.w3.org/2000/svg"
 width="1280.000000pt" height="810.000000pt" viewBox="0 0 1280.000000 810.000000"
 preserveAspectRatio="xMidYMid meet">
<metadata>
Created by potrace 1.15, written by Peter Selinger 2001-2017
</metadata>
<g transform="translate(0.000000,810.000000) scale(0.100000,-0.100000)"
fill="#000000" stroke="none">
<path d="M3005 8089 c-191 -28 -377 -126 -552 -292 -148 -141 -257 -319 -305
-497 -18 -69 -22 -112 -23 -230 0 -80 3 -159 7 -177 l7 -31 -73 33 c-114 53
-330 105 -461 112 -177 9 -349 -29 -531 -117 -279 -134 -456 -336 -534 -611
-31 -108 -38 -315 -15 -429 46 -225 158 -427 329 -594 256 -249 530 -419 837
-520 211 -70 360 -100 819 -166 494 -72 781 -144 1084 -271 158 -67 247 -112
268 -138 22 -26 38 -26 66 -1 21 20 21 22 6 51 -8 17 -13 33 -11 36 7 6 73
-23 81 -36 17 -26 22 -7 14 47 -6 31 -8 179 -5 327 7 374 30 520 172 1080 139
548 160 682 152 990 -4 175 -9 231 -31 333 -33 153 -111 392 -161 492 -151
303 -369 481 -695 568 -192 52 -300 62 -445 41z m1252 -1381 c-3 -7 -5 -2 -5
12 0 14 2 19 5 13 2 -7 2 -19 0 -25z m0 -260 c-3 -7 -5 -2 -5 12 0 14 2 19 5
13 2 -7 2 -19 0 -25z m-320 -1620 c-3 -8 -6 -5 -6 6 -1 11 2 17 5 13 3 -3 4
-12 1 -19z"/>
<path d="M5899 7576 c-285 -60 -500 -200 -731 -476 -199 -238 -339 -502 -422
-795 -48 -172 -73 -306 -131 -705 -55 -374 -97 -576 -167 -805 -57 -189 -184
-485 -231 -541 -29 -34 -34 -63 -15 -82 15 -15 54 -16 63 -2 3 6 13 10 21 10
12 0 10 -8 -7 -42 -12 -24 -27 -46 -33 -50 -21 -14 0 -16 54 -6 33 6 162 8
325 5 402 -7 496 -24 1265 -218 l115 -29 608 0 c596 0 609 0 675 22 200 64
365 151 484 255 167 145 252 288 323 538 30 107 37 152 42 258 11 237 -43 413
-187 607 -62 83 -227 244 -303 294 -83 54 -214 113 -304 137 -93 24 -283 35
-368 21 -33 -5 -61 -9 -63 -8 -1 2 11 32 27 67 28 62 78 229 100 337 16 77 14
267 -5 362 -26 137 -94 301 -182 440 -117 185 -300 321 -519 386 -109 32 -326
42 -434 20z m-1012 -3412 c-3 -3 -12 -4 -19 -1 -8 3 -5 6 6 6 11 1 17 -2 13
-5z m1516 -311 c-7 -2 -19 -2 -25 0 -7 3 -2 5 12 5 14 0 19 -2 13 -5z m500 0
c-7 -2 -21 -2 -30 0 -10 3 -4 5 12 5 17 0 24 -2 18 -5z"/>
<path d="M1380 4339 c-337 -17 -727 -144 -949 -309 -82 -61 -180 -161 -231
-235 -80 -116 -162 -347 -191 -535 -7 -44 -9 -115 -5 -171 16 -245 112 -443
316 -650 152 -154 315 -249 508 -296 72 -17 281 -24 364 -11 l47 7 -30 -63
c-36 -77 -84 -241 -104 -355 -38 -212 1 -432 115 -661 93 -185 194 -303 338
-398 151 -98 284 -140 472 -149 104 -4 142 -1 230 17 224 46 408 148 583 324
176 177 320 379 422 591 127 265 177 457 255 990 51 346 81 511 125 685 72
285 233 691 294 742 26 22 27 42 1 68 -19 19 -22 19 -51 4 -17 -8 -33 -13 -36
-10 -3 3 6 26 21 52 14 25 26 48 26 49 0 1 -26 -2 -57 -7 -32 -6 -177 -8 -323
-5 -371 6 -498 27 -1085 173 -572 143 -744 168 -1055 153z m13 -86 c-7 -2 -21
-2 -30 0 -10 3 -4 5 12 5 17 0 24 -2 18 -5z m264 1 c-3 -3 -12 -4 -19 -1 -8 3
-5 6 6 6 11 1 17 -2 13 -5z m1630 -320 c-3 -3 -12 -4 -19 -1 -8 3 -5 6 6 6 11
1 17 -2 13 -5z"/>
<path d="M4162 3944 c-23 -16 -29 -48 -12 -59 6 -3 10 -15 10 -25 0 -18 -4
-17 -50 10 -60 35 -64 36 -51 11 17 -32 25 -362 12 -526 -20 -256 -57 -458
-148 -820 -93 -371 -113 -456 -133 -560 -82 -427 -65 -747 60 -1125 81 -247
165 -396 300 -531 150 -150 265 -209 555 -286 85 -23 121 -27 235 -27 273 0
470 87 697 307 202 196 301 395 322 644 5 54 7 103 5 108 -1 6 -5 46 -9 91
l-6 81 58 -28 c66 -32 277 -93 373 -108 259 -42 585 48 829 229 234 174 365
439 364 740 0 169 -29 290 -109 455 -125 258 -443 549 -792 724 -262 132 -490
193 -987 265 -523 76 -720 118 -975 204 -226 77 -466 186 -488 221 -15 25 -30
26 -60 5z m5 -401 c-2 -21 -4 -6 -4 32 0 39 2 55 4 38 2 -18 2 -50 0 -70z
m-20 -315 c-3 -8 -6 -5 -6 6 -1 11 2 17 5 13 3 -3 4 -12 1 -19z m-300 -1440
c-3 -8 -6 -5 -6 6 -1 11 2 17 5 13 3 -3 4 -12 1 -19z m-20 -325 c-2 -27 -3 -5
-3 47 0 52 1 74 3 48 2 -27 2 -69 0 -95z m414 -1160 c13 -16 12 -17 -3 -4 -17
13 -22 21 -14 21 2 0 10 -8 17 -17z"/>
<path d="M6453 3683 c-7 -2 -13 -19 -13 -36 0 -18 -7 -41 -15 -51 -38 -50 -12
-81 105 -128 30 -12 215 -115 411 -229 603 -352 738 -427 914 -514 211 -103
1252 -567 1630 -725 490 -206 449 -186 1022 -501 596 -328 946 -500 1170 -575
113 -38 647 -160 851 -194 67 -12 141 -20 165 -18 l42 3 -63 49 c-42 34 -59
53 -52 60 5 5 42 11 81 12 68 3 99 14 99 38 0 16 -453 466 -520 517 -30 23
-80 56 -110 73 l-55 31 75 5 c41 3 86 11 100 19 14 8 76 45 139 83 62 37 118
68 124 68 27 0 168 44 196 61 l32 19 -18 31 c-18 30 -18 31 4 49 21 16 21 19
5 25 -11 5 -13 9 -4 12 6 3 12 16 12 29 0 22 -15 32 -137 90 -480 228 -961
402 -1858 674 -1985 602 -2291 682 -3125 819 -168 27 -487 80 -710 116 -223
37 -420 73 -439 81 -36 15 -39 15 -58 7z m5565 -2100 c-10 -2 -28 -2 -40 0
-13 2 -5 4 17 4 22 1 32 -1 23 -4z m85 0 c-7 -2 -21 -2 -30 0 -10 3 -4 5 12 5
17 0 24 -2 18 -5z"/>
</g>
</svg>
