<!-- icon666.com - MILLIONS OF FREE VECTOR ICONS --><svg viewBox="0 0 512.03819 512" xmlns="http://www.w3.org/2000/svg"><path d="m392.550781 230.144531h100.292969c3.839844-.011719 7.386719 2.058594 9.261719 5.410157 1.875 3.351562 1.78125 7.453124-.242188 10.71875-15.605469 24.730468-35.386719 69.207031-109.3125 69.207031zm0 0" fill="#4527a0"></path><path d="m358.417969 230.144531h100.292969c3.839843-.011719 7.386718 2.058594 9.261718 5.410157 1.871094 3.351562 1.78125 7.453124-.242187 10.71875-15.605469 24.730468-35.386719 69.207031-109.3125 69.207031zm0 0" fill="#673ab7"></path><path d="m179.21875 426.414062h153.601562v76.796876h-153.601562zm0 0" fill="#6a1b9a"></path><path d="m392.550781 230.144531v119.46875c0 18.851563-15.28125 34.132813-34.132812 34.132813h-204.800781c-18.847657 0-34.132813-15.28125-34.132813-34.132813v-119.46875zm0 0" fill="#4527a0"></path><path d="m366.953125 230.144531v119.46875c0 18.851563-15.28125 34.132813-34.132813 34.132813h-179.203124c-18.847657 0-34.132813-15.28125-34.132813-34.132813v-119.46875zm0 0" fill="#673ab7"></path><path d="m119.484375 230.144531v85.335938c-11.484375.105469-22.941406-1.15625-34.132813-3.757813-46.589843-11.261718-62.292968-45.054687-75.179687-65.449218-2.015625-3.269532-2.101563-7.375-.222656-10.726563 1.878906-3.351563 5.425781-5.417969 9.269531-5.402344zm0 0" fill="#4527a0"></path><g fill="#673ab7"><path d="m93.886719 230.144531v81.578125c-46.59375-11.261718-62.292969-45.054687-75.179688-65.449218-2.019531-3.269532-2.105469-7.375-.226562-10.726563 1.878906-3.351563 5.429687-5.417969 9.273437-5.402344zm0 0"></path><path d="m102.417969 469.078125h93.867187v17.066406c0 9.425781-7.640625 17.066407-17.066406 17.066407h-59.734375c-9.425781 0-17.066406-7.640626-17.066406-17.066407zm0 0"></path><path d="m392.550781 503.210938h-59.730469c-9.425781 0-17.066406-7.640626-17.066406-17.066407v-17.066406h93.863282v17.066406c0 9.425781-7.640626 17.066407-17.066407 17.066407zm0 0"></path></g><path d="m324.285156 383.746094c0 42.667968 59.734375 85.332031 85.332032 85.332031h-93.863282s-8.535156-34.132813-59.734375-34.132813-59.734375 34.132813-59.734375 34.132813h-93.867187c25.601562 0 85.335937-42.664063 85.335937-85.332031zm0 0" fill="#4527a0"></path><path d="m256.019531 204.546875v25.597656h-136.535156v-25.597656c0-4.714844 3.820313-8.535156 8.535156-8.535156h119.464844c4.714844 0 8.535156 3.820312 8.535156 8.535156zm0 0" fill="#f57c00"></path><path d="m238.953125 196.011719h-102.402344l14.679688-29.441407c1.460937-2.894531 4.433593-4.714843 7.679687-4.691406h57.683594c3.246094-.023437 6.222656 1.796875 7.679688 4.691406zm0 0" fill="#f57c00"></path><path d="m230.417969 204.546875v25.597656h-110.933594v-25.597656c0-4.714844 3.820313-8.535156 8.535156-8.535156h93.867188c4.710937 0 8.53125 3.820312 8.53125 8.535156zm0 0" fill="#ff9801"></path><path d="m213.351562 196.011719h-76.800781l14.679688-29.441407c1.460937-2.894531 4.433593-4.714843 7.679687-4.691406h32.085938c3.242187-.023437 6.21875 1.796875 7.679687 4.691406zm0 0" fill="#ff9801"></path><path d="m358.589844 61.527344-83.882813 84.566406c-3.160156 3.179688-7.460937 4.96875-11.945312 4.96875s-8.785157-1.789062-11.949219-4.96875l-23.976562-24.152344c-6.574219-6.707031-6.574219-17.441406 0-24.148437l63.230468-63.742188 20.566406-20.738281c3.152344-3.230469 7.472657-5.054688 11.988282-5.054688s8.839844 1.824219 11.988281 5.054688l23.980469 24.148438c6.570312 6.675781 6.570312 17.390624 0 24.066406zm0 0" fill="#37474f"></path><path d="m327.871094 87.125-63.234375 63.832031c-5.113281.628907-10.230469-1.171875-13.824219-4.863281l-23.976562-24.152344c-6.574219-6.707031-6.574219-17.441406 0-24.148437l63.230468-63.742188c5.121094-.671875 10.253906 1.132813 13.824219 4.863281l23.980469 24.148438c6.570312 6.675781 6.570312 17.386719 0 24.0625zm0 0" fill="#607d8b"></path><path d="m477.886719 230.144531h-71.851563l-107.347656-108.203125 19.199219-19.371094 16.722656-16.894531zm0 0" fill="#4e342e"></path><path d="m444.433594 230.144531h-38.398438l-107.347656-108.203125 19.199219-19.371094zm0 0" fill="#795548"></path><path d="m358.417969 392.277344h-204.800781c-23.550782-.027344-42.636719-19.113282-42.664063-42.664063v-119.46875c0-4.710937 3.820313-8.53125 8.53125-8.53125h273.066406c4.714844 0 8.535157 3.820313 8.535157 8.53125v119.46875c-.027344 23.550781-19.113282 42.636719-42.667969 42.664063zm-230.398438-153.597656v110.933593c0 14.136719 11.460938 25.597657 25.597657 25.597657h204.800781c14.140625 0 25.601562-11.460938 25.601562-25.597657v-110.933593zm0 0"></path><path d="m392.550781 324.011719c-4.710937 0-8.53125-3.820313-8.53125-8.53125v-85.335938c0-4.710937 3.820313-8.53125 8.53125-8.53125h100.292969c6.984375 0 13.414062 3.796875 16.785156 9.914063 3.402344 6.039062 3.1875 13.460937-.554687 19.292968-1.332031 2.117188-2.695313 4.386719-4.128907 6.75-15.964843 26.453126-40.105468 66.441407-112.394531 66.441407zm8.535157-85.332031v68.050781c56.003906-2.917969 75.09375-34.574219 89.25-58.023438 1.492187-2.46875 2.917968-4.832031 4.265624-7.03125.394532-.585937.410157-1.347656.042969-1.949219-.359375-.652343-1.050781-1.054687-1.800781-1.046874zm0 0"></path><path d="m119.484375 324.011719c-72.285156 0-96.425781-39.988281-112.390625-66.441407-1.433594-2.363281-2.800781-4.632812-4.128906-6.75-3.742188-5.832031-3.957032-13.253906-.554688-19.292968 3.367188-6.117188 9.800782-9.914063 16.785156-9.914063h100.289063c4.714844 0 8.535156 3.820313 8.535156 8.53125v85.335938c0 4.710937-3.820312 8.53125-8.535156 8.53125zm-100.289063-85.332031c-.773437-.015626-1.488281.40625-1.84375 1.089843-.382812.59375-.382812 1.355469 0 1.945313 1.390626 2.203125 2.816407 4.566406 4.265626 7.035156 14.132812 23.40625 33.28125 55.0625 89.25 58.023438v-68.09375zm0 0"></path><path d="m179.21875 511.746094h-59.734375c-14.136719 0-25.597656-11.460938-25.597656-25.601563v-17.066406c0-4.710937 3.820312-8.53125 8.53125-8.53125h93.867187c4.714844 0 8.535156 3.820313 8.535156 8.53125v17.066406c0 14.140625-11.460937 25.601563-25.601562 25.601563zm-68.265625-34.132813v8.53125c0 4.714844 3.820313 8.535157 8.53125 8.535157h59.734375c4.714844 0 8.535156-3.820313 8.535156-8.535157v-8.53125zm0 0"></path><path d="m392.550781 511.746094h-59.730469c-14.140624 0-25.601562-11.460938-25.601562-25.601563v-17.066406c0-4.710937 3.820312-8.53125 8.535156-8.53125h93.863282c4.714843 0 8.535156 3.820313 8.535156 8.53125v17.066406c0 14.140625-11.460938 25.601563-25.601563 25.601563zm-68.265625-34.132813v8.53125c0 4.714844 3.820313 8.535157 8.535156 8.535157h59.730469c4.714844 0 8.535157-3.820313 8.535157-8.535157v-8.53125zm0 0"></path><path d="m409.617188 477.613281h-93.863282c-3.914062 0-7.328125-2.664062-8.277344-6.460937-.257812-1.050782-8.082031-27.671875-51.457031-27.671875s-51.199219 26.621093-51.480469 27.757812c-1.011718 3.734375-4.382812 6.339844-8.253906 6.375h-93.867187c-4.710938 0-8.53125-3.820312-8.53125-8.535156 0-4.710937 3.820312-8.53125 8.53125-8.53125 20.335937 0 76.800781-38.195313 76.800781-76.800781 0-4.714844 3.820312-8.535156 8.535156-8.535156h136.53125c4.714844 0 8.535156 3.820312 8.535156 8.535156 0 38.605468 56.464844 76.800781 76.796876 76.800781 4.714843 0 8.535156 3.820313 8.535156 8.53125 0 4.714844-3.820313 8.535156-8.535156 8.535156zm-88.0625-17.066406h45.226562c-23.527344-15.90625-46.300781-41.199219-50.398438-68.269531h-120.753906c-4.097656 27.070312-26.871094 52.363281-50.398437 68.269531h45.226562c5.511719-11.488281 21.914063-34.132813 65.535157-34.132813 43.625 0 60.050781 22.644532 65.5625 34.132813zm0 0"></path><path d="m153.617188 298.414062c-4.710938 0-8.53125-3.824218-8.53125-8.535156v-25.601562c0-4.710938 3.820312-8.53125 8.53125-8.53125h42.667968c4.714844 0 8.535156 3.820312 8.535156 8.53125 0 4.714844-3.820312 8.535156-8.535156 8.535156h-34.132812v17.066406c0 4.710938-3.820313 8.535156-8.535156 8.535156zm0 0"></path><path d="m247.484375 272.8125h-17.066406c-4.710938 0-8.53125-3.820312-8.53125-8.535156 0-4.710938 3.820312-8.53125 8.53125-8.53125h17.066406c4.714844 0 8.535156 3.820312 8.535156 8.53125 0 4.714844-3.820312 8.535156-8.535156 8.535156zm0 0"></path><path d="m256.019531 238.679688h-136.535156c-4.710937 0-8.53125-3.820313-8.53125-8.535157v-25.597656c0-9.425781 7.640625-17.066406 17.066406-17.066406h119.464844c9.425781 0 17.066406 7.640625 17.066406 17.066406v25.597656c0 4.714844-3.820312 8.535157-8.53125 8.535157zm-128-17.066407h119.464844v-17.066406h-119.464844zm0 0"></path><path d="m238.953125 204.546875h-102.402344c-2.957031 0-5.703125-1.53125-7.257812-4.046875-1.558594-2.515625-1.699219-5.65625-.378907-8.300781l14.710938-29.425781c2.878906-5.792969 8.796875-9.449219 15.269531-9.429688h57.71875c6.46875-.019531 12.386719 3.636719 15.265625 9.429688l14.753906 29.425781c1.324219 2.652343 1.179688 5.800781-.386718 8.320312s-4.328125 4.042969-7.292969 4.027344zm-88.59375-17.066406h74.785156l-8.53125-17.066407h-57.71875zm0 0"></path><path d="m262.769531 159.601562c-6.777343.015626-13.273437-2.695312-18.03125-7.519531l-23.953125-24.15625c-9.890625-10.019531-9.890625-26.128906 0-36.148437l83.824219-84.480469c10.0625-9.703125 26.003906-9.703125 36.070313 0l23.953124 24.148437c9.875 10.027344 9.875 26.125 0 36.148438l-83.832031 84.480469c-4.757812 4.828125-11.253906 7.539062-18.03125 7.527343zm59.871094-142.789062c-2.226563-.003906-4.359375.890625-5.914063 2.484375l-83.824218 84.476563c-3.320313 3.359374-3.320313 8.761718 0 12.121093l23.953125 24.148438c3.304687 3.175781 8.523437 3.175781 11.828125 0l83.832031-84.480469c3.308594-3.363281 3.308594-8.757812 0-12.117188l-23.964844-24.148437c-1.554687-1.589844-3.6875-2.488281-5.910156-2.484375zm0 0"></path><path d="m477.886719 238.679688h-71.84375c-2.28125-.011719-4.460938-.933594-6.058594-2.5625l-107.347656-108.183594c-3.296875-3.328125-3.296875-8.6875 0-12.015625l35.914062-36.214844c3.394531-3.234375 8.726563-3.234375 12.117188 0l143.277343 144.46875c2.398438 2.449219 3.101563 6.097656 1.78125 9.261719-1.324218 3.164062-4.410156 5.230468-7.839843 5.246094zm-68.269531-17.066407h47.789062l-122.796875-123.785156-23.890625 24.097656zm0 0"></path><path d="m179.21875 136.277344h-17.066406c-4.710938 0-8.535156-3.820313-8.535156-8.53125 0-4.714844 3.824218-8.535156 8.535156-8.535156h17.066406c4.714844 0 8.535156 3.820312 8.535156 8.535156 0 4.710937-3.820312 8.53125-8.535156 8.53125zm0 0"></path><path d="m187.753906 102.144531c-2.265625 0-4.433594-.898437-6.035156-2.5l-8.53125-8.53125c-3.234375-3.351562-3.1875-8.671875.101562-11.964843 3.292969-3.289063 8.613282-3.335938 11.964844-.101563l8.53125 8.53125c2.441406 2.441406 3.167969 6.109375 1.847656 9.300781-1.320312 3.1875-4.429687 5.265625-7.878906 5.265625zm0 0"></path></svg>